<svg xmlns="http://www.w3.org/2000/svg" xmlns:xlink="http://www.w3.org/1999/xlink" xmlns:s="https://github.com/nturley/netlistsvg" width="559" height="199"><style>svg {
  stroke:#000;
  fill:none;
}
text {
  fill:#000;
  stroke:none;
  font-size:10px;
  font-weight: bold;
  font-family: "Courier New", monospace;
}
line {
    stroke-linecap: round;
}
.nodelabel {
  text-anchor: middle;
}
.inputPortLabel {
  text-anchor: end;
}
.splitjoinBody {
  fill:#000;
}</style><g s:type="mux" transform="translate(356,22)" s:width="20" s:height="40" id="cell_\12"><s:alias val="$pmux"/><s:alias val="$mux"/><s:alias val="$_MUX_"/><path d="M0,0 L20,10 L20,30 L0,40 Z" fill="#ffffff" class="cell_\12"/><text x="5" y="32" class="nodelabel cell_\12" s:attribute="">1</text><text x="5" y="13" class="nodelabel cell_\12" s:attribute="">0</text><g s:x="0" s:y="10" s:pid="A"/><g s:x="0" s:y="30" s:pid="B"/><g s:x="10" s:y="35" s:pid="S"/><g s:x="20" s:y="20" s:pid="Y"/></g><g s:type="not" transform="translate(217.5,167)" s:width="30" s:height="20" id="cell_\3"><s:alias val="$_NOT_"/><s:alias val="$not"/><s:alias val="$logic_not"/><path d="M0,0 L0,20 L20,10 Z" fill="#eebaff" class="cell_\3"/><circle cx="24" cy="10" r="3" fill="#eebaff" class="cell_\3"/><g s:x="-1" s:y="10" s:pid="A"/><g s:x="27" s:y="10" s:pid="Y"/></g><g s:type="generic" transform="translate(217,109)" s:width="30" s:height="40" id="cell_\6"><text x="15" y="-4" class="nodelabel cell_\6" s:attribute="ref">$reduce_bool</text><rect width="30" height="20" s:generic="body" fill="#ffae46" rx="0" class="cell_\6"/><g transform="translate(0,10)" s:x="0" s:y="10" s:pid="in0" id="port_\6~A"><text x="-3" y="-4" class="inputPortLabel cell_\6">A</text></g><g transform="translate(30,10)" s:x="30" s:y="10" s:pid="out0" id="port_\6~Y"><text x="5" y="-4" style="fill:#000; stroke:none" class="cell_\6">Y</text></g></g><g s:type="and" transform="translate(290.3333333333333,157)" s:width="30" s:height="25" id="cell_\7"><s:alias val="$and"/><s:alias val="$logic_and"/><s:alias val="$_AND_"/><path d="M0,0 L0,25 L15,25 A15 12.5 0 0 0 15,0 Z" fill="#eebaff" class="cell_\7"/><g s:x="0" s:y="5" s:pid="A"/><g s:x="0" s:y="20" s:pid="B"/><g s:x="30" s:y="12.5" s:pid="Y"/></g><g s:type="mux" transform="translate(356,82)" s:width="20" s:height="40" id="cell_\8"><s:alias val="$pmux"/><s:alias val="$mux"/><s:alias val="$_MUX_"/><path d="M0,0 L20,10 L20,30 L0,40 Z" fill="#ffffff" class="cell_\8"/><text x="5" y="32" class="nodelabel cell_\8" s:attribute="">1</text><text x="5" y="13" class="nodelabel cell_\8" s:attribute="">0</text><g s:x="0" s:y="10" s:pid="A"/><g s:x="0" s:y="30" s:pid="B"/><g s:x="10" s:y="35" s:pid="S"/><g s:x="20" s:y="20" s:pid="Y"/></g><g s:type="inputExt" transform="translate(12,99.5)" s:width="30" s:height="20" id="cell_a_in"><text x="15" y="-4" class="nodelabel cell_a_in" s:attribute="ref">a_in</text><s:alias val="$_inputExt_"/><path d="M0,0 L0,20 L15,20 L30,10 L15,0 Z" fill="#8bcaff" class="cell_a_in"/><g s:x="30" s:y="10" s:pid="Y"/></g><g s:type="outputExt" transform="translate(499,82)" s:width="30" s:height="20" id="cell_flag_out"><text x="15" y="-4" class="nodelabel cell_flag_out" s:attribute="ref">flag_out</text><s:alias val="$_outputExt_"/><path d="M30,0 L30,20 L15,20 L0,10 L15,0 Z" fill="#169300" class="cell_flag_out"/><g s:x="0" s:y="10" s:pid="A"/></g><g s:type="constant" transform="translate(290,22)" s:width="30" s:height="20" id="cell_0"><text x="15" y="-4" class="nodelabel cell_0" s:attribute="ref">0</text><s:alias val="$_constant_"/><rect width="30" height="20" fill="#745bff" class="cell_0"/><g s:x="31" s:y="10" s:pid="Y"/></g><g s:type="constant" transform="translate(290,102)" s:width="30" s:height="20" id="cell_1"><text x="15" y="-4" class="nodelabel cell_1" s:attribute="ref">1</text><s:alias val="$_constant_"/><rect width="30" height="20" fill="#745bff" class="cell_1"/><g s:x="31" s:y="10" s:pid="Y"/></g><g s:type="join" transform="translate(419,71.5)" s:width="5" s:height="40" id="cell_$join$,34,35,"><rect width="5" height="40" class="splitjoinBody" s:generic="body"/><s:alias val="$_join_"/><g s:x="5" s:y="20" s:pid="out"/><g transform="translate(-1,10)" s:x="-1" s:y="10" s:pid="in0"><text x="-3" y="-4" class="inputPortLabel">0</text></g><g transform="translate(-1,30)" s:x="-1" s:y="10" s:pid="in0"><text x="-3" y="-4" class="inputPortLabel">1</text></g></g><g s:type="split" transform="translate(117,89)" s:width="5" s:height="40" id="cell_$split$,2,3,4,5,6,7,8,9,10,11,12,13,14,15,16,17,18,19,20,21,22,23,24,25,26,27,28,29,30,31,32,33,"><rect width="5" height="40" class="splitjoinBody" s:generic="body"/><s:alias val="$_split_"/><g s:x="-1" s:y="20" s:pid="in"/><g transform="translate(5,10)" s:x="5" s:y="10" s:pid="out0"><text x="5" y="-4">31</text></g><g transform="translate(5,30)" s:x="5" s:y="10" s:pid="out0"><text x="5" y="-4">0:30</text></g></g><line x1="321" x2="356" y1="32" y2="32" class="net_39 width_1" style="stroke-width: 1"/><line x1="321" x2="341" y1="32" y2="32" class="net_39 width_1" style="stroke-width: 1"/><line x1="341" x2="341" y1="32" y2="92" class="net_39 width_1" style="stroke-width: 1"/><circle cx="341" cy="32" r="2" style="fill:#000" class="net_39 width_1"/><line x1="341" x2="356" y1="92" y2="92" class="net_39 width_1" style="stroke-width: 1"/><line x1="321" x2="331" y1="112" y2="112" class="net_40 width_1" style="stroke-width: 1"/><line x1="331" x2="331" y1="112" y2="52" class="net_40 width_1" style="stroke-width: 1"/><circle cx="331" cy="112" r="2" style="fill:#000" class="net_40 width_1"/><line x1="331" x2="356" y1="52" y2="52" class="net_40 width_1" style="stroke-width: 1"/><line x1="321" x2="356" y1="112" y2="112" class="net_40 width_1" style="stroke-width: 1"/><line x1="123" x2="146" y1="99.5" y2="99.5" class="net_33 width_1" style="stroke-width: 1"/><line x1="146" x2="146" y1="99.5" y2="72" class="net_33 width_1" style="stroke-width: 1"/><line x1="146" x2="366" y1="72" y2="72" class="net_33 width_1" style="stroke-width: 1"/><circle cx="146" cy="99.5" r="2" style="fill:#000" class="net_33 width_1"/><line x1="366" x2="366" y1="72" y2="57" class="net_33 width_1" style="stroke-width: 1"/><line x1="123" x2="146" y1="99.5" y2="99.5" class="net_33 width_1" style="stroke-width: 1"/><line x1="146" x2="146" y1="99.5" y2="177" class="net_33 width_1" style="stroke-width: 1"/><line x1="146" x2="216.5" y1="177" y2="177" class="net_33 width_1" style="stroke-width: 1"/><line x1="123" x2="217" y1="119.5" y2="119.5" class="net_2,3,4,5,6,7,8,9,10,11,12,13,14,15,16,17,18,19,20,21,22,23,24,25,26,27,28,29,30,31,32 width_31" style="stroke-width: 2"/><line x1="248" x2="265" y1="119.5" y2="119.5" class="net_37 width_1" style="stroke-width: 1"/><line x1="265" x2="265" y1="119.5" y2="162" class="net_37 width_1" style="stroke-width: 1"/><line x1="265" x2="290.3333333333333" y1="162" y2="162" class="net_37 width_1" style="stroke-width: 1"/><line x1="244.5" x2="290.3333333333333" y1="177" y2="177" class="net_36 width_1" style="stroke-width: 1"/><line x1="320.3333333333333" x2="366" y1="169.5" y2="169.5" class="net_38 width_1" style="stroke-width: 1"/><line x1="366" x2="366" y1="169.5" y2="117" class="net_38 width_1" style="stroke-width: 1"/><line x1="425" x2="499" y1="92" y2="92" class="net_34,35 width_2" style="stroke-width: 2"/><line x1="376" x2="386" y1="42" y2="42" class="net_34 width_1" style="stroke-width: 1"/><line x1="386" x2="386" y1="42" y2="82" class="net_34 width_1" style="stroke-width: 1"/><line x1="386" x2="418" y1="82" y2="82" class="net_34 width_1" style="stroke-width: 1"/><line x1="376" x2="418" y1="102" y2="102" class="net_35 width_1" style="stroke-width: 1"/><line x1="42" x2="116" y1="109.5" y2="109.5" class="net_2,3,4,5,6,7,8,9,10,11,12,13,14,15,16,17,18,19,20,21,22,23,24,25,26,27,28,29,30,31,32,33 width_32" style="stroke-width: 2"/><rect x="172" y="114.5" width="22" height="9" class="net_2,3,4,5,6,7,8,9,10,11,12,13,14,15,16,17,18,19,20,21,22,23,24,25,26,27,28,29,30,31,32 width_31 busLabel_31" style="fill: white; stroke: none"/><text x="171" y="122.5" class="net_2,3,4,5,6,7,8,9,10,11,12,13,14,15,16,17,18,19,20,21,22,23,24,25,26,27,28,29,30,31,32 width_31 busLabel_31">/31/</text><rect x="461" y="87" width="16" height="9" class="net_34,35 width_2 busLabel_2" style="fill: white; stroke: none"/><text x="460" y="95" class="net_34,35 width_2 busLabel_2">/2/</text><rect x="78" y="104.5" width="22" height="9" class="net_2,3,4,5,6,7,8,9,10,11,12,13,14,15,16,17,18,19,20,21,22,23,24,25,26,27,28,29,30,31,32,33 width_32 busLabel_32" style="fill: white; stroke: none"/><text x="77" y="112.5" class="net_2,3,4,5,6,7,8,9,10,11,12,13,14,15,16,17,18,19,20,21,22,23,24,25,26,27,28,29,30,31,32,33 width_32 busLabel_32">/32/</text></svg>