<svg xmlns="http://www.w3.org/2000/svg" xmlns:xlink="http://www.w3.org/1999/xlink" xmlns:s="https://github.com/nturley/netlistsvg" width="521" height="270"><style>svg {
  stroke:#000;
  fill:none;
}
text {
  fill:#000;
  stroke:none;
  font-size:10px;
  font-weight: bold;
  font-family: "Courier New", monospace;
}
line {
    stroke-linecap: round;
}
.nodelabel {
  text-anchor: middle;
}
.inputPortLabel {
  text-anchor: end;
}
.splitjoinBody {
  fill:#000;
}</style><g s:type="mux-bus" transform="translate(458,26)" s:width="24" s:height="40" id="cell_\10"><s:alias val="$pmux-bus"/><s:alias val="$mux-bus"/><s:alias val="$_MUX_-bus"/><path d="M8,2 L8,0 L24,8 L24,32 L8,40 L8,38" fill="#ffffff" class="cell_\10"/><path d="M4,2 L4,0 L22,9 L22,31 L4,40 L4,38" fill="#ffffff" class="cell_\10"/><path d="M0,0 L20,10 L20,30 L0,40 Z" fill="#ffffff" class="cell_\10"/><text x="5" y="32" class="nodelabel cell_\10" s:attribute="">1</text><text x="5" y="13" class="nodelabel cell_\10" s:attribute="">0</text><g s:x="-1" s:y="10" s:pid="A"/><g s:x="-1" s:y="30" s:pid="B"/><g s:x="12" s:y="38" s:pid="S"/><g s:x="24.5" s:y="20" s:pid="Y"/></g><g s:type="dff" transform="translate(78,26)" s:width="30" s:height="40" id="cell_\11"><s:alias val="$dff"/><s:alias val="$_DFF_"/><s:alias val="$_DFF_P_"/><s:alias val="dff-bus"/><s:alias val="$dff-bus"/><s:alias val="$_DFF_-bus"/><s:alias val="$_DFF_P_-bus"/><rect width="30" height="40" x="0" y="0" fill="#ffef8b" class="cell_\11"/><path d="M0,35 L5,30 L0,25" class="cell_\11"/><g s:x="31" s:y="10" s:pid="Q"/><g s:x="-1" s:y="30" s:pid="CLK"/><g s:x="-1" s:y="30" s:pid="C"/><g s:x="-1" s:y="10" s:pid="D"/></g><g s:type="mux-bus" transform="translate(321.3333333333333,157)" s:width="24" s:height="40" id="cell_\8"><s:alias val="$pmux-bus"/><s:alias val="$mux-bus"/><s:alias val="$_MUX_-bus"/><path d="M8,2 L8,0 L24,8 L24,32 L8,40 L8,38" fill="#ffffff" class="cell_\8"/><path d="M4,2 L4,0 L22,9 L22,31 L4,40 L4,38" fill="#ffffff" class="cell_\8"/><path d="M0,0 L20,10 L20,30 L0,40 Z" fill="#ffffff" class="cell_\8"/><text x="5" y="32" class="nodelabel cell_\8" s:attribute="">1</text><text x="5" y="13" class="nodelabel cell_\8" s:attribute="">0</text><g s:x="-1" s:y="10" s:pid="A"/><g s:x="-1" s:y="30" s:pid="B"/><g s:x="12" s:y="38" s:pid="S"/><g s:x="24.5" s:y="20" s:pid="Y"/></g><g s:type="inputExt" transform="translate(12,46)" s:width="30" s:height="20" id="cell_clk"><text x="15" y="-4" class="nodelabel cell_clk" s:attribute="ref">clk</text><s:alias val="$_inputExt_"/><path d="M0,0 L0,20 L15,20 L30,10 L15,0 Z" fill="#8bcaff" class="cell_clk"/><g s:x="30" s:y="10" s:pid="Y"/></g><g s:type="inputExt" transform="translate(392,118)" s:width="30" s:height="20" id="cell_we"><text x="15" y="-4" class="nodelabel cell_we" s:attribute="ref">we</text><s:alias val="$_inputExt_"/><path d="M0,0 L0,20 L15,20 L30,10 L15,0 Z" fill="#8bcaff" class="cell_we"/><g s:x="30" s:y="10" s:pid="Y"/></g><g s:type="inputExt" transform="translate(250,238)" s:width="30" s:height="20" id="cell_sel"><text x="15" y="-4" class="nodelabel cell_sel" s:attribute="ref">sel</text><s:alias val="$_inputExt_"/><path d="M0,0 L0,20 L15,20 L30,10 L15,0 Z" fill="#8bcaff" class="cell_sel"/><g s:x="30" s:y="10" s:pid="Y"/></g><g s:type="inputExt" transform="translate(315,57)" s:width="30" s:height="20" id="cell_data_in"><text x="15" y="-4" class="nodelabel cell_data_in" s:attribute="ref">data_in</text><s:alias val="$_inputExt_"/><path d="M0,0 L0,20 L15,20 L30,10 L15,0 Z" fill="#8bcaff" class="cell_data_in"/><g s:x="30" s:y="10" s:pid="Y"/></g><g s:type="outputExt" transform="translate(457,167)" s:width="30" s:height="20" id="cell_led_out"><text x="15" y="-4" class="nodelabel cell_led_out" s:attribute="ref">led_out</text><s:alias val="$_outputExt_"/><path d="M30,0 L30,20 L15,20 L0,10 L15,0 Z" fill="#169300" class="cell_led_out"/><g s:x="0" s:y="10" s:pid="A"/></g><g s:type="split" transform="translate(184,156.5)" s:width="5" s:height="40" id="cell_$split$,53,54,55,56,57,58,59,60,61,62,63,64,65,66,67,68,69,70,71,72,73,74,75,76,77,78,79,80,81,82,83,84,"><rect width="5" height="40" class="splitjoinBody" s:generic="body"/><s:alias val="$_split_"/><g s:x="-1" s:y="20" s:pid="in"/><g transform="translate(5,10)" s:x="5" s:y="10" s:pid="out0"><text x="5" y="-4">0:15</text></g><g transform="translate(5,30)" s:x="5" s:y="10" s:pid="out0"><text x="5" y="-4">16:31</text></g></g><line x1="109" x2="457" y1="36" y2="36" class="net_53,54,55,56,57,58,59,60,61,62,63,64,65,66,67,68,69,70,71,72,73,74,75,76,77,78,79,80,81,82,83,84 width_32" style="stroke-width: 2"/><line x1="109" x2="119" y1="36" y2="36" class="net_53,54,55,56,57,58,59,60,61,62,63,64,65,66,67,68,69,70,71,72,73,74,75,76,77,78,79,80,81,82,83,84 width_32" style="stroke-width: 2"/><line x1="119" x2="119" y1="36" y2="177" class="net_53,54,55,56,57,58,59,60,61,62,63,64,65,66,67,68,69,70,71,72,73,74,75,76,77,78,79,80,81,82,83,84 width_32" style="stroke-width: 2"/><circle cx="119" cy="36" r="3" style="fill:#000" class="net_53,54,55,56,57,58,59,60,61,62,63,64,65,66,67,68,69,70,71,72,73,74,75,76,77,78,79,80,81,82,83,84 width_32"/><line x1="119" x2="183" y1="177" y2="177" class="net_53,54,55,56,57,58,59,60,61,62,63,64,65,66,67,68,69,70,71,72,73,74,75,76,77,78,79,80,81,82,83,84 width_32" style="stroke-width: 2"/><line x1="345" x2="432" y1="67" y2="67" class="net_5,6,7,8,9,10,11,12,13,14,15,16,17,18,19,20,21,22,23,24,25,26,27,28,29,30,31,32,33,34,35,36 width_32" style="stroke-width: 2"/><line x1="432" x2="432" y1="67" y2="56" class="net_5,6,7,8,9,10,11,12,13,14,15,16,17,18,19,20,21,22,23,24,25,26,27,28,29,30,31,32,33,34,35,36 width_32" style="stroke-width: 2"/><line x1="432" x2="457" y1="56" y2="56" class="net_5,6,7,8,9,10,11,12,13,14,15,16,17,18,19,20,21,22,23,24,25,26,27,28,29,30,31,32,33,34,35,36 width_32" style="stroke-width: 2"/><line x1="422" x2="470" y1="128" y2="128" class="net_3 width_1" style="stroke-width: 1"/><line x1="470" x2="470" y1="128" y2="64" class="net_3 width_1" style="stroke-width: 1"/><line x1="42" x2="77" y1="56" y2="56" class="net_2 width_1" style="stroke-width: 1"/><line x1="482.5" x2="509" y1="46" y2="46" class="net_85,86,87,88,89,90,91,92,93,94,95,96,97,98,99,100,101,102,103,104,105,106,107,108,109,110,111,112,113,114,115,116 width_32" style="stroke-width: 2"/><line x1="509" x2="509" y1="46" y2="16" class="net_85,86,87,88,89,90,91,92,93,94,95,96,97,98,99,100,101,102,103,104,105,106,107,108,109,110,111,112,113,114,115,116 width_32" style="stroke-width: 2"/><line x1="509" x2="52" y1="16" y2="16" class="net_85,86,87,88,89,90,91,92,93,94,95,96,97,98,99,100,101,102,103,104,105,106,107,108,109,110,111,112,113,114,115,116 width_32" style="stroke-width: 2"/><line x1="52" x2="52" y1="16" y2="36" class="net_85,86,87,88,89,90,91,92,93,94,95,96,97,98,99,100,101,102,103,104,105,106,107,108,109,110,111,112,113,114,115,116 width_32" style="stroke-width: 2"/><line x1="52" x2="77" y1="36" y2="36" class="net_85,86,87,88,89,90,91,92,93,94,95,96,97,98,99,100,101,102,103,104,105,106,107,108,109,110,111,112,113,114,115,116 width_32" style="stroke-width: 2"/><line x1="190" x2="320.3333333333333" y1="167" y2="167" class="net_53,54,55,56,57,58,59,60,61,62,63,64,65,66,67,68 width_16" style="stroke-width: 2"/><line x1="190" x2="320.3333333333333" y1="187" y2="187" class="net_69,70,71,72,73,74,75,76,77,78,79,80,81,82,83,84 width_16" style="stroke-width: 2"/><line x1="280" x2="333.3333333333333" y1="248" y2="248" class="net_4 width_1" style="stroke-width: 1"/><line x1="333.3333333333333" x2="333.3333333333333" y1="248" y2="195" class="net_4 width_1" style="stroke-width: 1"/><line x1="345.8333333333333" x2="457" y1="177" y2="177" class="net_37,38,39,40,41,42,43,44,45,46,47,48,49,50,51,52 width_16" style="stroke-width: 2"/><rect x="145" y="172" width="22" height="9" class="net_53,54,55,56,57,58,59,60,61,62,63,64,65,66,67,68,69,70,71,72,73,74,75,76,77,78,79,80,81,82,83,84 width_32 busLabel_32" style="fill: white; stroke: none"/><text x="144" y="180" class="net_53,54,55,56,57,58,59,60,61,62,63,64,65,66,67,68,69,70,71,72,73,74,75,76,77,78,79,80,81,82,83,84 width_32 busLabel_32">/32/</text><rect x="145" y="172" width="22" height="9" class="net_53,54,55,56,57,58,59,60,61,62,63,64,65,66,67,68,69,70,71,72,73,74,75,76,77,78,79,80,81,82,83,84 width_32 busLabel_32" style="fill: white; stroke: none"/><text x="144" y="180" class="net_53,54,55,56,57,58,59,60,61,62,63,64,65,66,67,68,69,70,71,72,73,74,75,76,77,78,79,80,81,82,83,84 width_32 busLabel_32">/32/</text><rect x="406" y="62" width="22" height="9" class="net_5,6,7,8,9,10,11,12,13,14,15,16,17,18,19,20,21,22,23,24,25,26,27,28,29,30,31,32,33,34,35,36 width_32 busLabel_32" style="fill: white; stroke: none"/><text x="405" y="70" class="net_5,6,7,8,9,10,11,12,13,14,15,16,17,18,19,20,21,22,23,24,25,26,27,28,29,30,31,32,33,34,35,36 width_32 busLabel_32">/32/</text><rect x="264" y="11" width="22" height="9" class="net_85,86,87,88,89,90,91,92,93,94,95,96,97,98,99,100,101,102,103,104,105,106,107,108,109,110,111,112,113,114,115,116 width_32 busLabel_32" style="fill: white; stroke: none"/><text x="263" y="19" class="net_85,86,87,88,89,90,91,92,93,94,95,96,97,98,99,100,101,102,103,104,105,106,107,108,109,110,111,112,113,114,115,116 width_32 busLabel_32">/32/</text><rect x="264" y="162" width="22" height="9" class="net_53,54,55,56,57,58,59,60,61,62,63,64,65,66,67,68 width_16 busLabel_16" style="fill: white; stroke: none"/><text x="263" y="170" class="net_53,54,55,56,57,58,59,60,61,62,63,64,65,66,67,68 width_16 busLabel_16">/16/</text><rect x="264" y="182" width="22" height="9" class="net_69,70,71,72,73,74,75,76,77,78,79,80,81,82,83,84 width_16 busLabel_16" style="fill: white; stroke: none"/><text x="263" y="190" class="net_69,70,71,72,73,74,75,76,77,78,79,80,81,82,83,84 width_16 busLabel_16">/16/</text><rect x="406" y="172" width="22" height="9" class="net_37,38,39,40,41,42,43,44,45,46,47,48,49,50,51,52 width_16 busLabel_16" style="fill: white; stroke: none"/><text x="405" y="180" class="net_37,38,39,40,41,42,43,44,45,46,47,48,49,50,51,52 width_16 busLabel_16">/16/</text></svg>