<svg xmlns="http://www.w3.org/2000/svg" xmlns:xlink="http://www.w3.org/1999/xlink" xmlns:s="https://github.com/nturley/netlistsvg" width="767" height="457"><style>svg {
  stroke:#000;
  fill:none;
}
text {
  fill:#000;
  stroke:none;
  font-size:10px;
  font-weight: bold;
  font-family: "Courier New", monospace;
}
line {
    stroke-linecap: round;
}
.nodelabel {
  text-anchor: middle;
}
.inputPortLabel {
  text-anchor: end;
}
.splitjoinBody {
  fill:#000;
}</style><g s:type="mux-bus" transform="translate(339,108)" s:width="24" s:height="40" id="cell_\11"><s:alias val="$pmux-bus"/><s:alias val="$mux-bus"/><s:alias val="$_MUX_-bus"/><path d="M8,2 L8,0 L24,8 L24,32 L8,40 L8,38" fill="#ffffff" class="cell_\11"/><path d="M4,2 L4,0 L22,9 L22,31 L4,40 L4,38" fill="#ffffff" class="cell_\11"/><path d="M0,0 L20,10 L20,30 L0,40 Z" fill="#ffffff" class="cell_\11"/><text x="5" y="32" class="nodelabel cell_\11" s:attribute="">1</text><text x="5" y="13" class="nodelabel cell_\11" s:attribute="">0</text><g s:x="-1" s:y="10" s:pid="A"/><g s:x="-1" s:y="30" s:pid="B"/><g s:x="12" s:y="38" s:pid="S"/><g s:x="24.5" s:y="20" s:pid="Y"/></g><g s:type="mux-bus" transform="translate(465,87)" s:width="24" s:height="40" id="cell_\12"><s:alias val="$pmux-bus"/><s:alias val="$mux-bus"/><s:alias val="$_MUX_-bus"/><path d="M8,2 L8,0 L24,8 L24,32 L8,40 L8,38" fill="#ffffff" class="cell_\12"/><path d="M4,2 L4,0 L22,9 L22,31 L4,40 L4,38" fill="#ffffff" class="cell_\12"/><path d="M0,0 L20,10 L20,30 L0,40 Z" fill="#ffffff" class="cell_\12"/><text x="5" y="32" class="nodelabel cell_\12" s:attribute="">1</text><text x="5" y="13" class="nodelabel cell_\12" s:attribute="">0</text><g s:x="-1" s:y="10" s:pid="A"/><g s:x="-1" s:y="30" s:pid="B"/><g s:x="12" s:y="38" s:pid="S"/><g s:x="24.5" s:y="20" s:pid="Y"/></g><g s:type="mux-bus" transform="translate(590.5,97)" s:width="24" s:height="40" id="cell_\13"><s:alias val="$pmux-bus"/><s:alias val="$mux-bus"/><s:alias val="$_MUX_-bus"/><path d="M8,2 L8,0 L24,8 L24,32 L8,40 L8,38" fill="#ffffff" class="cell_\13"/><path d="M4,2 L4,0 L22,9 L22,31 L4,40 L4,38" fill="#ffffff" class="cell_\13"/><path d="M0,0 L20,10 L20,30 L0,40 Z" fill="#ffffff" class="cell_\13"/><text x="5" y="32" class="nodelabel cell_\13" s:attribute="">1</text><text x="5" y="13" class="nodelabel cell_\13" s:attribute="">0</text><g s:x="-1" s:y="10" s:pid="A"/><g s:x="-1" s:y="30" s:pid="B"/><g s:x="12" s:y="38" s:pid="S"/><g s:x="24.5" s:y="20" s:pid="Y"/></g><g s:type="mux-bus" transform="translate(716,107)" s:width="24" s:height="40" id="cell_\15"><s:alias val="$pmux-bus"/><s:alias val="$mux-bus"/><s:alias val="$_MUX_-bus"/><path d="M8,2 L8,0 L24,8 L24,32 L8,40 L8,38" fill="#ffffff" class="cell_\15"/><path d="M4,2 L4,0 L22,9 L22,31 L4,40 L4,38" fill="#ffffff" class="cell_\15"/><path d="M0,0 L20,10 L20,30 L0,40 Z" fill="#ffffff" class="cell_\15"/><text x="5" y="32" class="nodelabel cell_\15" s:attribute="">1</text><text x="5" y="13" class="nodelabel cell_\15" s:attribute="">0</text><g s:x="-1" s:y="10" s:pid="A"/><g s:x="-1" s:y="30" s:pid="B"/><g s:x="12" s:y="38" s:pid="S"/><g s:x="24.5" s:y="20" s:pid="Y"/></g><g s:type="dff" transform="translate(78,158)" s:width="30" s:height="40" id="cell_\19"><s:alias val="$dff"/><s:alias val="$_DFF_"/><s:alias val="$_DFF_P_"/><s:alias val="dff-bus"/><s:alias val="$dff-bus"/><s:alias val="$_DFF_-bus"/><s:alias val="$_DFF_P_-bus"/><rect width="30" height="40" x="0" y="0" fill="#ffef8b" class="cell_\19"/><path d="M0,35 L5,30 L0,25" class="cell_\19"/><g s:x="31" s:y="10" s:pid="Q"/><g s:x="-1" s:y="30" s:pid="CLK"/><g s:x="-1" s:y="30" s:pid="C"/><g s:x="-1" s:y="10" s:pid="D"/></g><g s:type="add" transform="translate(338,273)" s:width="25" s:height="25" id="cell_\4"><s:alias val="$add"/><circle r="12.5" cx="12.5" cy="12.5" fill="#ffc9c3" class="cell_\4"/><line x1="7.5" x2="17.5" y1="12.5" y2="12.5" class="cell_\4"/><line x1="12.5" x2="12.5" y1="7.5" y2="17.5" class="cell_\4"/><g s:x="2" s:y="5" s:pid="A"/><g s:x="2" s:y="20" s:pid="B"/><g s:x="26" s:y="12.5" s:pid="Y"/></g><g s:type="sub" transform="translate(464.5,280.5)" s:width="25" s:height="25" id="cell_\6"><s:alias val="$sub"/><circle r="12.5" cx="12.5" cy="12.5" fill="#ffc9c3" class="cell_\6"/><line x1="7.5" x2="17.5" y1="12.5" y2="12.5" class="cell_\6"/><g s:x="2" s:y="5" s:pid="A"/><g s:x="2" s:y="20" s:pid="B"/><g s:x="25" s:y="12.5" s:pid="Y"/></g><g s:type="add" transform="translate(194.66666666666666,214)" s:width="25" s:height="25" id="cell_\8"><s:alias val="$add"/><circle r="12.5" cx="12.5" cy="12.5" fill="#ffc9c3" class="cell_\8"/><line x1="7.5" x2="17.5" y1="12.5" y2="12.5" class="cell_\8"/><line x1="12.5" x2="12.5" y1="7.5" y2="17.5" class="cell_\8"/><g s:x="2" s:y="5" s:pid="A"/><g s:x="2" s:y="20" s:pid="B"/><g s:x="26" s:y="12.5" s:pid="Y"/></g><g s:type="inputExt" transform="translate(12,178)" s:width="30" s:height="20" id="cell_clk"><text x="15" y="-4" class="nodelabel cell_clk" s:attribute="ref">clk</text><s:alias val="$_inputExt_"/><path d="M0,0 L0,20 L15,20 L30,10 L15,0 Z" fill="#8bcaff" class="cell_clk"/><g s:x="30" s:y="10" s:pid="Y"/></g><g s:type="inputExt" transform="translate(650,425)" s:width="30" s:height="20" id="cell_reset"><text x="15" y="-4" class="nodelabel cell_reset" s:attribute="ref">reset</text><s:alias val="$_inputExt_"/><path d="M0,0 L0,20 L15,20 L30,10 L15,0 Z" fill="#8bcaff" class="cell_reset"/><g s:x="30" s:y="10" s:pid="Y"/></g><g s:type="inputExt" transform="translate(399,179)" s:width="30" s:height="20" id="cell_en"><text x="15" y="-4" class="nodelabel cell_en" s:attribute="ref">en</text><s:alias val="$_inputExt_"/><path d="M0,0 L0,20 L15,20 L30,10 L15,0 Z" fill="#8bcaff" class="cell_en"/><g s:x="30" s:y="10" s:pid="Y"/></g><g s:type="inputExt" transform="translate(524.5,344)" s:width="30" s:height="20" id="cell_br"><text x="15" y="-4" class="nodelabel cell_br" s:attribute="ref">br</text><s:alias val="$_inputExt_"/><path d="M0,0 L0,20 L15,20 L30,10 L15,0 Z" fill="#8bcaff" class="cell_br"/><g s:x="30" s:y="10" s:pid="Y"/></g><g s:type="inputExt" transform="translate(183,329)" s:width="30" s:height="20" id="cell_jump_value"><text x="15" y="-4" class="nodelabel cell_jump_value" s:attribute="ref">jump_value</text><s:alias val="$_inputExt_"/><path d="M0,0 L0,20 L15,20 L30,10 L15,0 Z" fill="#8bcaff" class="cell_jump_value"/><g s:x="30" s:y="10" s:pid="Y"/></g><g s:type="outputExt" transform="translate(715,36)" s:width="30" s:height="20" id="cell_count"><text x="15" y="-4" class="nodelabel cell_count" s:attribute="ref">count</text><s:alias val="$_outputExt_"/><path d="M30,0 L30,20 L15,20 L0,10 L15,0 Z" fill="#169300" class="cell_count"/><g s:x="0" s:y="10" s:pid="A"/></g><g s:type="constant" transform="translate(183,394)" s:width="30" s:height="20" id="cell_000000000000"><text x="15" y="-4" class="nodelabel cell_000000000000" s:attribute="ref">0x0</text><s:alias val="$_constant_"/><rect width="30" height="20" fill="#745bff" class="cell_000000000000"/><g s:x="31" s:y="10" s:pid="Y"/></g><g s:type="constant" transform="translate(78,243)" s:width="30" s:height="20" id="cell_000000000001"><text x="15" y="-4" class="nodelabel cell_000000000001" s:attribute="ref">0x1</text><s:alias val="$_constant_"/><rect width="30" height="20" fill="#745bff" class="cell_000000000001"/><g s:x="31" s:y="10" s:pid="Y"/></g><g s:type="split" transform="translate(279,147.5)" s:width="5" s:height="40" id="cell_$split$,18,19,20,21,22,23,24,25,26,27,28,41,"><rect width="5" height="40" class="splitjoinBody" s:generic="body"/><s:alias val="$_split_"/><g s:x="-1" s:y="20" s:pid="in"/><g transform="translate(5,10)" s:x="5" s:y="10" s:pid="out0"><text x="5" y="-4">11</text></g><g transform="translate(5,30)" s:x="5" s:y="10" s:pid="out0"><text x="5" y="-4">0:10</text></g></g><line x1="220.66666666666666" x2="318" y1="226.5" y2="226.5" class="net_29,30,31,32,33,34,35,36,37,38,39,40 width_12" style="stroke-width: 2"/><line x1="318" x2="318" y1="226.5" y2="118" class="net_29,30,31,32,33,34,35,36,37,38,39,40 width_12" style="stroke-width: 2"/><line x1="318" x2="338" y1="118" y2="118" class="net_29,30,31,32,33,34,35,36,37,38,39,40 width_12" style="stroke-width: 2"/><line x1="214" x2="253" y1="404" y2="404" class="net_114,115,116,117,118,119,120,121,122,123,124,125 width_12" style="stroke-width: 2"/><line x1="253" x2="253" y1="404" y2="246.5" class="net_114,115,116,117,118,119,120,121,122,123,124,125 width_12" style="stroke-width: 2"/><line x1="253" x2="328" y1="246.5" y2="246.5" class="net_114,115,116,117,118,119,120,121,122,123,124,125 width_12" style="stroke-width: 2"/><line x1="328" x2="328" y1="246.5" y2="138" class="net_114,115,116,117,118,119,120,121,122,123,124,125 width_12" style="stroke-width: 2"/><circle cx="253" cy="404" r="3" style="fill:#000" class="net_114,115,116,117,118,119,120,121,122,123,124,125 width_12"/><line x1="328" x2="338" y1="138" y2="138" class="net_114,115,116,117,118,119,120,121,122,123,124,125 width_12" style="stroke-width: 2"/><line x1="214" x2="690" y1="404" y2="404" class="net_114,115,116,117,118,119,120,121,122,123,124,125 width_12" style="stroke-width: 2"/><line x1="690" x2="690" y1="404" y2="137" class="net_114,115,116,117,118,119,120,121,122,123,124,125 width_12" style="stroke-width: 2"/><line x1="690" x2="715" y1="137" y2="137" class="net_114,115,116,117,118,119,120,121,122,123,124,125 width_12" style="stroke-width: 2"/><line x1="285" x2="351" y1="158" y2="158" class="net_41 width_1" style="stroke-width: 1"/><line x1="351" x2="351" y1="158" y2="146" class="net_41 width_1" style="stroke-width: 1"/><line x1="109" x2="129" y1="168" y2="168" class="net_18,19,20,21,22,23,24,25,26,27,28,41 width_12" style="stroke-width: 2"/><line x1="129" x2="129" y1="168" y2="97" class="net_18,19,20,21,22,23,24,25,26,27,28,41 width_12" style="stroke-width: 2"/><circle cx="129" cy="168" r="3" style="fill:#000" class="net_18,19,20,21,22,23,24,25,26,27,28,41 width_12"/><line x1="129" x2="464" y1="97" y2="97" class="net_18,19,20,21,22,23,24,25,26,27,28,41 width_12" style="stroke-width: 2"/><line x1="109" x2="129" y1="168" y2="168" class="net_18,19,20,21,22,23,24,25,26,27,28,41 width_12" style="stroke-width: 2"/><line x1="129" x2="129" y1="168" y2="278" class="net_18,19,20,21,22,23,24,25,26,27,28,41 width_12" style="stroke-width: 2"/><line x1="129" x2="340" y1="278" y2="278" class="net_18,19,20,21,22,23,24,25,26,27,28,41 width_12" style="stroke-width: 2"/><line x1="109" x2="129" y1="168" y2="168" class="net_18,19,20,21,22,23,24,25,26,27,28,41 width_12" style="stroke-width: 2"/><line x1="129" x2="129" y1="168" y2="219" class="net_18,19,20,21,22,23,24,25,26,27,28,41 width_12" style="stroke-width: 2"/><circle cx="129" cy="219" r="3" style="fill:#000" class="net_18,19,20,21,22,23,24,25,26,27,28,41 width_12"/><line x1="129" x2="196.66666666666666" y1="219" y2="219" class="net_18,19,20,21,22,23,24,25,26,27,28,41 width_12" style="stroke-width: 2"/><line x1="109" x2="278" y1="168" y2="168" class="net_18,19,20,21,22,23,24,25,26,27,28,41 width_12" style="stroke-width: 2"/><line x1="363.5" x2="439" y1="128" y2="128" class="net_42,43,44,45,46,47,48,49,50,51,52,53 width_12" style="stroke-width: 2"/><line x1="439" x2="439" y1="128" y2="117" class="net_42,43,44,45,46,47,48,49,50,51,52,53 width_12" style="stroke-width: 2"/><line x1="439" x2="464" y1="117" y2="117" class="net_42,43,44,45,46,47,48,49,50,51,52,53 width_12" style="stroke-width: 2"/><line x1="429" x2="477" y1="189" y2="189" class="net_4 width_1" style="stroke-width: 1"/><line x1="477" x2="477" y1="189" y2="125" class="net_4 width_1" style="stroke-width: 1"/><line x1="489.5" x2="589.5" y1="107" y2="107" class="net_54,55,56,57,58,59,60,61,62,63,64,65 width_12" style="stroke-width: 2"/><line x1="489.5" x2="564.5" y1="293" y2="293" class="net_66,67,68,69,70,71,72,73,74,75,76,77 width_12" style="stroke-width: 2"/><line x1="564.5" x2="564.5" y1="293" y2="127" class="net_66,67,68,69,70,71,72,73,74,75,76,77 width_12" style="stroke-width: 2"/><line x1="564.5" x2="589.5" y1="127" y2="127" class="net_66,67,68,69,70,71,72,73,74,75,76,77 width_12" style="stroke-width: 2"/><line x1="554.5" x2="602.5" y1="354" y2="354" class="net_5 width_1" style="stroke-width: 1"/><line x1="602.5" x2="602.5" y1="354" y2="135" class="net_5 width_1" style="stroke-width: 1"/><line x1="615" x2="715" y1="117" y2="117" class="net_78,79,80,81,82,83,84,85,86,87,88,89 width_12" style="stroke-width: 2"/><line x1="680" x2="728" y1="435" y2="435" class="net_3 width_1" style="stroke-width: 1"/><line x1="728" x2="728" y1="435" y2="145" class="net_3 width_1" style="stroke-width: 1"/><line x1="42" x2="77" y1="188" y2="188" class="net_2 width_1" style="stroke-width: 1"/><line x1="740.5" x2="755" y1="127" y2="127" class="net_90,91,92,93,94,95,96,97,98,99,100,101 width_12" style="stroke-width: 2"/><line x1="755" x2="755" y1="127" y2="16" class="net_90,91,92,93,94,95,96,97,98,99,100,101 width_12" style="stroke-width: 2"/><line x1="755" x2="52" y1="16" y2="16" class="net_90,91,92,93,94,95,96,97,98,99,100,101 width_12" style="stroke-width: 2"/><line x1="52" x2="52" y1="16" y2="168" class="net_90,91,92,93,94,95,96,97,98,99,100,101 width_12" style="stroke-width: 2"/><line x1="52" x2="77" y1="168" y2="168" class="net_90,91,92,93,94,95,96,97,98,99,100,101 width_12" style="stroke-width: 2"/><line x1="213" x2="308" y1="339" y2="339" class="net_6,7,8,9,10,11,12,13,14,15,16,17 width_12" style="stroke-width: 2"/><line x1="308" x2="308" y1="339" y2="293" class="net_6,7,8,9,10,11,12,13,14,15,16,17 width_12" style="stroke-width: 2"/><line x1="308" x2="340" y1="293" y2="293" class="net_6,7,8,9,10,11,12,13,14,15,16,17 width_12" style="stroke-width: 2"/><line x1="364" x2="466.5" y1="285.5" y2="285.5" class="net_102,103,104,105,106,107,108,109,110,111,112,113 width_12" style="stroke-width: 2"/><line x1="109" x2="119" y1="253" y2="253" class="net_138,139,140,141,142,143,144,145,146,147,148,149 width_12" style="stroke-width: 2"/><line x1="119" x2="119" y1="253" y2="425" class="net_138,139,140,141,142,143,144,145,146,147,148,149 width_12" style="stroke-width: 2"/><line x1="119" x2="263" y1="425" y2="425" class="net_138,139,140,141,142,143,144,145,146,147,148,149 width_12" style="stroke-width: 2"/><line x1="263" x2="263" y1="425" y2="359" class="net_138,139,140,141,142,143,144,145,146,147,148,149 width_12" style="stroke-width: 2"/><line x1="263" x2="439" y1="359" y2="359" class="net_138,139,140,141,142,143,144,145,146,147,148,149 width_12" style="stroke-width: 2"/><line x1="439" x2="439" y1="359" y2="300.5" class="net_138,139,140,141,142,143,144,145,146,147,148,149 width_12" style="stroke-width: 2"/><circle cx="119" cy="253" r="3" style="fill:#000" class="net_138,139,140,141,142,143,144,145,146,147,148,149 width_12"/><line x1="439" x2="466.5" y1="300.5" y2="300.5" class="net_138,139,140,141,142,143,144,145,146,147,148,149 width_12" style="stroke-width: 2"/><line x1="109" x2="158" y1="253" y2="253" class="net_138,139,140,141,142,143,144,145,146,147,148,149 width_12" style="stroke-width: 2"/><line x1="158" x2="158" y1="253" y2="234" class="net_138,139,140,141,142,143,144,145,146,147,148,149 width_12" style="stroke-width: 2"/><line x1="158" x2="196.66666666666666" y1="234" y2="234" class="net_138,139,140,141,142,143,144,145,146,147,148,149 width_12" style="stroke-width: 2"/><line x1="285" x2="308" y1="178" y2="178" class="net_18,19,20,21,22,23,24,25,26,27,28 width_11" style="stroke-width: 2"/><line x1="308" x2="308" y1="178" y2="46" class="net_18,19,20,21,22,23,24,25,26,27,28 width_11" style="stroke-width: 2"/><line x1="308" x2="715" y1="46" y2="46" class="net_18,19,20,21,22,23,24,25,26,27,28 width_11" style="stroke-width: 2"/><rect x="287" y="221.5" width="22" height="9" class="net_29,30,31,32,33,34,35,36,37,38,39,40 width_12 busLabel_12" style="fill: white; stroke: none"/><text x="286" y="229.5" class="net_29,30,31,32,33,34,35,36,37,38,39,40 width_12 busLabel_12">/12/</text><rect x="475.75" y="399" width="22" height="9" class="net_114,115,116,117,118,119,120,121,122,123,124,125 width_12 busLabel_12" style="fill: white; stroke: none"/><text x="474.75" y="407" class="net_114,115,116,117,118,119,120,121,122,123,124,125 width_12 busLabel_12">/12/</text><rect x="475.75" y="399" width="22" height="9" class="net_114,115,116,117,118,119,120,121,122,123,124,125 width_12 busLabel_12" style="fill: white; stroke: none"/><text x="474.75" y="407" class="net_114,115,116,117,118,119,120,121,122,123,124,125 width_12 busLabel_12">/12/</text><rect x="145" y="163" width="22" height="9" class="net_18,19,20,21,22,23,24,25,26,27,28,41 width_12 busLabel_12" style="fill: white; stroke: none"/><text x="144" y="171" class="net_18,19,20,21,22,23,24,25,26,27,28,41 width_12 busLabel_12">/12/</text><rect x="145" y="163" width="22" height="9" class="net_18,19,20,21,22,23,24,25,26,27,28,41 width_12 busLabel_12" style="fill: white; stroke: none"/><text x="144" y="171" class="net_18,19,20,21,22,23,24,25,26,27,28,41 width_12 busLabel_12">/12/</text><rect x="145" y="163" width="22" height="9" class="net_18,19,20,21,22,23,24,25,26,27,28,41 width_12 busLabel_12" style="fill: white; stroke: none"/><text x="144" y="171" class="net_18,19,20,21,22,23,24,25,26,27,28,41 width_12 busLabel_12">/12/</text><rect x="145" y="163" width="22" height="9" class="net_18,19,20,21,22,23,24,25,26,27,28,41 width_12 busLabel_12" style="fill: white; stroke: none"/><text x="144" y="171" class="net_18,19,20,21,22,23,24,25,26,27,28,41 width_12 busLabel_12">/12/</text><rect x="413" y="123" width="22" height="9" class="net_42,43,44,45,46,47,48,49,50,51,52,53 width_12 busLabel_12" style="fill: white; stroke: none"/><text x="412" y="131" class="net_42,43,44,45,46,47,48,49,50,51,52,53 width_12 busLabel_12">/12/</text><rect x="538.5" y="102" width="22" height="9" class="net_54,55,56,57,58,59,60,61,62,63,64,65 width_12 busLabel_12" style="fill: white; stroke: none"/><text x="537.5" y="110" class="net_54,55,56,57,58,59,60,61,62,63,64,65 width_12 busLabel_12">/12/</text><rect x="538.5" y="288" width="22" height="9" class="net_66,67,68,69,70,71,72,73,74,75,76,77 width_12 busLabel_12" style="fill: white; stroke: none"/><text x="537.5" y="296" class="net_66,67,68,69,70,71,72,73,74,75,76,77 width_12 busLabel_12">/12/</text><rect x="664" y="112" width="22" height="9" class="net_78,79,80,81,82,83,84,85,86,87,88,89 width_12 busLabel_12" style="fill: white; stroke: none"/><text x="663" y="120" class="net_78,79,80,81,82,83,84,85,86,87,88,89 width_12 busLabel_12">/12/</text><rect x="413" y="11" width="22" height="9" class="net_90,91,92,93,94,95,96,97,98,99,100,101 width_12 busLabel_12" style="fill: white; stroke: none"/><text x="412" y="19" class="net_90,91,92,93,94,95,96,97,98,99,100,101 width_12 busLabel_12">/12/</text><rect x="287" y="334" width="22" height="9" class="net_6,7,8,9,10,11,12,13,14,15,16,17 width_12 busLabel_12" style="fill: white; stroke: none"/><text x="286" y="342" class="net_6,7,8,9,10,11,12,13,14,15,16,17 width_12 busLabel_12">/12/</text><rect x="413" y="280.5" width="22" height="9" class="net_102,103,104,105,106,107,108,109,110,111,112,113 width_12 busLabel_12" style="fill: white; stroke: none"/><text x="412" y="288.5" class="net_102,103,104,105,106,107,108,109,110,111,112,113 width_12 busLabel_12">/12/</text><rect x="145" y="248" width="22" height="9" class="net_138,139,140,141,142,143,144,145,146,147,148,149 width_12 busLabel_12" style="fill: white; stroke: none"/><text x="144" y="256" class="net_138,139,140,141,142,143,144,145,146,147,148,149 width_12 busLabel_12">/12/</text><rect x="145" y="248" width="22" height="9" class="net_138,139,140,141,142,143,144,145,146,147,148,149 width_12 busLabel_12" style="fill: white; stroke: none"/><text x="144" y="256" class="net_138,139,140,141,142,143,144,145,146,147,148,149 width_12 busLabel_12">/12/</text><rect x="475.75" y="41" width="22" height="9" class="net_18,19,20,21,22,23,24,25,26,27,28 width_11 busLabel_11" style="fill: white; stroke: none"/><text x="474.75" y="49" class="net_18,19,20,21,22,23,24,25,26,27,28 width_11 busLabel_11">/11/</text></svg>