<svg xmlns="http://www.w3.org/2000/svg" xmlns:xlink="http://www.w3.org/1999/xlink" xmlns:s="https://github.com/nturley/netlistsvg" width="499" height="498.5"><style>svg {
  stroke:#000;
  fill:none;
}
text {
  fill:#000;
  stroke:none;
  font-size:10px;
  font-weight: bold;
  font-family: "Courier New", monospace;
}
line {
    stroke-linecap: round;
}
.nodelabel {
  text-anchor: middle;
}
.inputPortLabel {
  text-anchor: end;
}
.splitjoinBody {
  fill:#000;
}</style><g s:type="add" transform="translate(283.3333333333333,324)" s:width="25" s:height="25" id="cell_\10"><s:alias val="$add"/><circle r="12.5" cx="12.5" cy="12.5" fill="#ffc9c3" class="cell_\10"/><line x1="7.5" x2="17.5" y1="12.5" y2="12.5" class="cell_\10"/><line x1="12.5" x2="12.5" y1="7.5" y2="17.5" class="cell_\10"/><g s:x="2" s:y="5" s:pid="A"/><g s:x="2" s:y="20" s:pid="B"/><g s:x="26" s:y="12.5" s:pid="Y"/></g><g s:type="not" transform="translate(282,77)" s:width="30" s:height="20" id="cell_\17"><s:alias val="$_NOT_"/><s:alias val="$not"/><s:alias val="$logic_not"/><path d="M0,0 L0,20 L20,10 Z" fill="#eebaff" class="cell_\17"/><circle cx="24" cy="10" r="3" fill="#eebaff" class="cell_\17"/><g s:x="-1" s:y="10" s:pid="A"/><g s:x="27" s:y="10" s:pid="Y"/></g><g s:type="mux" transform="translate(351,22)" s:width="20" s:height="40" id="cell_\18"><s:alias val="$pmux"/><s:alias val="$mux"/><s:alias val="$_MUX_"/><path d="M0,0 L20,10 L20,30 L0,40 Z" fill="#ffffff" class="cell_\18"/><text x="5" y="32" class="nodelabel cell_\18" s:attribute="">1</text><text x="5" y="13" class="nodelabel cell_\18" s:attribute="">0</text><g s:x="0" s:y="10" s:pid="A"/><g s:x="0" s:y="30" s:pid="B"/><g s:x="10" s:y="35" s:pid="S"/><g s:x="20" s:y="20" s:pid="Y"/></g><g s:type="not" transform="translate(216,207)" s:width="30" s:height="20" id="cell_\22"><s:alias val="$_NOT_"/><s:alias val="$not"/><s:alias val="$logic_not"/><path d="M0,0 L0,20 L20,10 Z" fill="#eebaff" class="cell_\22"/><circle cx="24" cy="10" r="3" fill="#eebaff" class="cell_\22"/><g s:x="-1" s:y="10" s:pid="A"/><g s:x="27" s:y="10" s:pid="Y"/></g><g s:type="not" transform="translate(216,152)" s:width="30" s:height="20" id="cell_\24"><s:alias val="$_NOT_"/><s:alias val="$not"/><s:alias val="$logic_not"/><path d="M0,0 L0,20 L20,10 Z" fill="#eebaff" class="cell_\24"/><circle cx="24" cy="10" r="3" fill="#eebaff" class="cell_\24"/><g s:x="-1" s:y="10" s:pid="A"/><g s:x="27" s:y="10" s:pid="Y"/></g><g s:type="and" transform="translate(281.6666666666667,197)" s:width="30" s:height="25" id="cell_\25"><s:alias val="$and"/><s:alias val="$logic_and"/><s:alias val="$_AND_"/><path d="M0,0 L0,25 L15,25 A15 12.5 0 0 0 15,0 Z" fill="#eebaff" class="cell_\25"/><g s:x="0" s:y="5" s:pid="A"/><g s:x="0" s:y="20" s:pid="B"/><g s:x="30" s:y="12.5" s:pid="Y"/></g><g s:type="mux" transform="translate(351,122)" s:width="20" s:height="40" id="cell_\26"><s:alias val="$pmux"/><s:alias val="$mux"/><s:alias val="$_MUX_"/><path d="M0,0 L20,10 L20,30 L0,40 Z" fill="#ffffff" class="cell_\26"/><text x="5" y="32" class="nodelabel cell_\26" s:attribute="">1</text><text x="5" y="13" class="nodelabel cell_\26" s:attribute="">0</text><g s:x="0" s:y="10" s:pid="A"/><g s:x="0" s:y="30" s:pid="B"/><g s:x="10" s:y="35" s:pid="S"/><g s:x="20" s:y="20" s:pid="Y"/></g><g s:type="dff" transform="translate(83,398.5)" s:width="30" s:height="40" id="cell_\28"><s:alias val="$dff"/><s:alias val="$_DFF_"/><s:alias val="$_DFF_P_"/><s:alias val="dff-bus"/><s:alias val="$dff-bus"/><s:alias val="$_DFF_-bus"/><s:alias val="$_DFF_P_-bus"/><rect width="30" height="40" x="0" y="0" fill="#ffef8b" class="cell_\28"/><path d="M0,35 L5,30 L0,25" class="cell_\28"/><g s:x="31" s:y="10" s:pid="Q"/><g s:x="-1" s:y="30" s:pid="CLK"/><g s:x="-1" s:y="30" s:pid="C"/><g s:x="-1" s:y="10" s:pid="D"/></g><g s:type="mux-bus" transform="translate(414,306.5)" s:width="24" s:height="40" id="cell_\29"><s:alias val="$pmux-bus"/><s:alias val="$mux-bus"/><s:alias val="$_MUX_-bus"/><path d="M8,2 L8,0 L24,8 L24,32 L8,40 L8,38" fill="#ffffff" class="cell_\29"/><path d="M4,2 L4,0 L22,9 L22,31 L4,40 L4,38" fill="#ffffff" class="cell_\29"/><path d="M0,0 L20,10 L20,30 L0,40 Z" fill="#ffffff" class="cell_\29"/><text x="5" y="32" class="nodelabel cell_\29" s:attribute="">1</text><text x="5" y="13" class="nodelabel cell_\29" s:attribute="">0</text><g s:x="-1" s:y="10" s:pid="A"/><g s:x="-1" s:y="30" s:pid="B"/><g s:x="12" s:y="38" s:pid="S"/><g s:x="24.5" s:y="20" s:pid="Y"/></g><g s:type="dff" transform="translate(83,273)" s:width="30" s:height="40" id="cell_\30"><s:alias val="$dff"/><s:alias val="$_DFF_"/><s:alias val="$_DFF_P_"/><s:alias val="dff-bus"/><s:alias val="$dff-bus"/><s:alias val="$_DFF_-bus"/><s:alias val="$_DFF_P_-bus"/><rect width="30" height="40" x="0" y="0" fill="#ffef8b" class="cell_\30"/><path d="M0,35 L5,30 L0,25" class="cell_\30"/><g s:x="31" s:y="10" s:pid="Q"/><g s:x="-1" s:y="30" s:pid="CLK"/><g s:x="-1" s:y="30" s:pid="C"/><g s:x="-1" s:y="10" s:pid="D"/></g><g s:type="add" transform="translate(414,419.5)" s:width="25" s:height="25" id="cell_\6"><s:alias val="$add"/><circle r="12.5" cx="12.5" cy="12.5" fill="#ffc9c3" class="cell_\6"/><line x1="7.5" x2="17.5" y1="12.5" y2="12.5" class="cell_\6"/><line x1="12.5" x2="12.5" y1="7.5" y2="17.5" class="cell_\6"/><g s:x="2" s:y="5" s:pid="A"/><g s:x="2" s:y="20" s:pid="B"/><g s:x="26" s:y="12.5" s:pid="Y"/></g><g s:type="not" transform="translate(348,377.5)" s:width="30" s:height="20" id="cell_\8"><s:alias val="$_NOT_"/><s:alias val="$not"/><s:alias val="$logic_not"/><path d="M0,0 L0,20 L20,10 Z" fill="#eebaff" class="cell_\8"/><circle cx="24" cy="10" r="3" fill="#eebaff" class="cell_\8"/><g s:x="-1" s:y="10" s:pid="A"/><g s:x="27" s:y="10" s:pid="Y"/></g><g s:type="inputExt" transform="translate(12,418.5)" s:width="30" s:height="20" id="cell_clk"><text x="15" y="-4" class="nodelabel cell_clk" s:attribute="ref">clk</text><s:alias val="$_inputExt_"/><path d="M0,0 L0,20 L15,20 L30,10 L15,0 Z" fill="#8bcaff" class="cell_clk"/><g s:x="30" s:y="10" s:pid="Y"/></g><g s:type="outputExt" transform="translate(414,132)" s:width="30" s:height="20" id="cell_en_slow"><text x="15" y="-4" class="nodelabel cell_en_slow" s:attribute="ref">en_slow</text><s:alias val="$_outputExt_"/><path d="M30,0 L30,20 L15,20 L0,10 L15,0 Z" fill="#169300" class="cell_en_slow"/><g s:x="0" s:y="10" s:pid="A"/></g><g s:type="outputExt" transform="translate(413,32)" s:width="30" s:height="20" id="cell_en_medium"><text x="15" y="-4" class="nodelabel cell_en_medium" s:attribute="ref">en_medium</text><s:alias val="$_outputExt_"/><path d="M30,0 L30,20 L15,20 L0,10 L15,0 Z" fill="#169300" class="cell_en_medium"/><g s:x="0" s:y="10" s:pid="A"/></g><g s:type="constant" transform="translate(149,334)" s:width="30" s:height="20" id="cell_001"><text x="15" y="-4" class="nodelabel cell_001" s:attribute="ref">001</text><s:alias val="$_constant_"/><rect width="30" height="20" fill="#745bff" class="cell_001"/><g s:x="31" s:y="10" s:pid="Y"/></g><g s:type="constant" transform="translate(281,22)" s:width="30" s:height="20" id="cell_0"><text x="15" y="-4" class="nodelabel cell_0" s:attribute="ref">0</text><s:alias val="$_constant_"/><rect width="30" height="20" fill="#745bff" class="cell_0"/><g s:x="31" s:y="10" s:pid="Y"/></g><g s:type="constant" transform="translate(281,142)" s:width="30" s:height="20" id="cell_1"><text x="15" y="-4" class="nodelabel cell_1" s:attribute="ref">1</text><s:alias val="$_constant_"/><rect width="30" height="20" fill="#745bff" class="cell_1"/><g s:x="31" s:y="10" s:pid="Y"/></g><g s:type="constant" transform="translate(281,429.5)" s:width="30" s:height="20" id="cell_0000000000000001"><text x="15" y="-4" class="nodelabel cell_0000000000000001" s:attribute="ref">0x1</text><s:alias val="$_constant_"/><rect width="30" height="20" fill="#745bff" class="cell_0000000000000001"/><g s:x="31" s:y="10" s:pid="Y"/></g><line x1="114" x2="256" y1="283" y2="283" class="net_5,6,7 width_3" style="stroke-width: 2"/><line x1="256" x2="256" y1="283" y2="329" class="net_5,6,7 width_3" style="stroke-width: 2"/><line x1="256" x2="285.3333333333333" y1="329" y2="329" class="net_5,6,7 width_3" style="stroke-width: 2"/><line x1="114" x2="134" y1="283" y2="283" class="net_5,6,7 width_3" style="stroke-width: 2"/><line x1="134" x2="134" y1="283" y2="162" class="net_5,6,7 width_3" style="stroke-width: 2"/><circle cx="134" cy="283" r="3" style="fill:#000" class="net_5,6,7 width_3"/><line x1="134" x2="215" y1="162" y2="162" class="net_5,6,7 width_3" style="stroke-width: 2"/><line x1="114" x2="134" y1="283" y2="283" class="net_5,6,7 width_3" style="stroke-width: 2"/><line x1="134" x2="134" y1="283" y2="266" class="net_5,6,7 width_3" style="stroke-width: 2"/><line x1="134" x2="388" y1="266" y2="266" class="net_5,6,7 width_3" style="stroke-width: 2"/><line x1="388" x2="388" y1="266" y2="316.5" class="net_5,6,7 width_3" style="stroke-width: 2"/><circle cx="134" cy="266" r="3" style="fill:#000" class="net_5,6,7 width_3"/><line x1="388" x2="413" y1="316.5" y2="316.5" class="net_5,6,7 width_3" style="stroke-width: 2"/><line x1="180" x2="285.3333333333333" y1="344" y2="344" class="net_51,52,53 width_3" style="stroke-width: 2"/><line x1="114" x2="124" y1="408.5" y2="408.5" class="net_11,12,13,14,15,16,17,18,19,20,21,22,23,24,25,26 width_16" style="stroke-width: 2"/><line x1="124" x2="124" y1="408.5" y2="87" class="net_11,12,13,14,15,16,17,18,19,20,21,22,23,24,25,26 width_16" style="stroke-width: 2"/><circle cx="124" cy="408.5" r="3" style="fill:#000" class="net_11,12,13,14,15,16,17,18,19,20,21,22,23,24,25,26 width_16"/><line x1="124" x2="281" y1="87" y2="87" class="net_11,12,13,14,15,16,17,18,19,20,21,22,23,24,25,26 width_16" style="stroke-width: 2"/><line x1="114" x2="124" y1="408.5" y2="408.5" class="net_11,12,13,14,15,16,17,18,19,20,21,22,23,24,25,26 width_16" style="stroke-width: 2"/><line x1="124" x2="124" y1="408.5" y2="217" class="net_11,12,13,14,15,16,17,18,19,20,21,22,23,24,25,26 width_16" style="stroke-width: 2"/><circle cx="124" cy="217" r="3" style="fill:#000" class="net_11,12,13,14,15,16,17,18,19,20,21,22,23,24,25,26 width_16"/><line x1="124" x2="215" y1="217" y2="217" class="net_11,12,13,14,15,16,17,18,19,20,21,22,23,24,25,26 width_16" style="stroke-width: 2"/><line x1="114" x2="388" y1="408.5" y2="408.5" class="net_11,12,13,14,15,16,17,18,19,20,21,22,23,24,25,26 width_16" style="stroke-width: 2"/><line x1="388" x2="388" y1="408.5" y2="424.5" class="net_11,12,13,14,15,16,17,18,19,20,21,22,23,24,25,26 width_16" style="stroke-width: 2"/><line x1="388" x2="416" y1="424.5" y2="424.5" class="net_11,12,13,14,15,16,17,18,19,20,21,22,23,24,25,26 width_16" style="stroke-width: 2"/><line x1="114" x2="190" y1="408.5" y2="408.5" class="net_11,12,13,14,15,16,17,18,19,20,21,22,23,24,25,26 width_16" style="stroke-width: 2"/><line x1="190" x2="190" y1="408.5" y2="387.5" class="net_11,12,13,14,15,16,17,18,19,20,21,22,23,24,25,26 width_16" style="stroke-width: 2"/><circle cx="190" cy="408.5" r="3" style="fill:#000" class="net_11,12,13,14,15,16,17,18,19,20,21,22,23,24,25,26 width_16"/><line x1="190" x2="347" y1="387.5" y2="387.5" class="net_11,12,13,14,15,16,17,18,19,20,21,22,23,24,25,26 width_16" style="stroke-width: 2"/><line x1="312" x2="351" y1="32" y2="32" class="net_54 width_1" style="stroke-width: 1"/><line x1="312" x2="332" y1="32" y2="32" class="net_54 width_1" style="stroke-width: 1"/><line x1="332" x2="332" y1="32" y2="132" class="net_54 width_1" style="stroke-width: 1"/><circle cx="332" cy="32" r="2" style="fill:#000" class="net_54 width_1"/><line x1="332" x2="351" y1="132" y2="132" class="net_54 width_1" style="stroke-width: 1"/><line x1="312" x2="322" y1="152" y2="152" class="net_55 width_1" style="stroke-width: 1"/><line x1="322" x2="322" y1="152" y2="52" class="net_55 width_1" style="stroke-width: 1"/><circle cx="322" cy="152" r="2" style="fill:#000" class="net_55 width_1"/><line x1="322" x2="351" y1="52" y2="52" class="net_55 width_1" style="stroke-width: 1"/><line x1="312" x2="351" y1="152" y2="152" class="net_55 width_1" style="stroke-width: 1"/><line x1="309" x2="361" y1="87" y2="87" class="net_27 width_1" style="stroke-width: 1"/><line x1="361" x2="361" y1="87" y2="57" class="net_27 width_1" style="stroke-width: 1"/><line x1="243" x2="256" y1="162" y2="162" class="net_29 width_1" style="stroke-width: 1"/><line x1="256" x2="256" y1="162" y2="202" class="net_29 width_1" style="stroke-width: 1"/><line x1="256" x2="281.6666666666667" y1="202" y2="202" class="net_29 width_1" style="stroke-width: 1"/><line x1="243" x2="281.6666666666667" y1="217" y2="217" class="net_28 width_1" style="stroke-width: 1"/><line x1="311.6666666666667" x2="361" y1="209.5" y2="209.5" class="net_30 width_1" style="stroke-width: 1"/><line x1="361" x2="361" y1="209.5" y2="157" class="net_30 width_1" style="stroke-width: 1"/><line x1="42" x2="82" y1="428.5" y2="428.5" class="net_2 width_1" style="stroke-width: 1"/><line x1="42" x2="62" y1="428.5" y2="428.5" class="net_2 width_1" style="stroke-width: 1"/><line x1="62" x2="62" y1="428.5" y2="303" class="net_2 width_1" style="stroke-width: 1"/><circle cx="62" cy="428.5" r="2" style="fill:#000" class="net_2 width_1"/><line x1="62" x2="82" y1="303" y2="303" class="net_2 width_1" style="stroke-width: 1"/><line x1="440" x2="477" y1="432" y2="432" class="net_31,32,33,34,35,36,37,38,39,40,41,42,43,44,45,46 width_16" style="stroke-width: 2"/><line x1="477" x2="477" y1="432" y2="460.5" class="net_31,32,33,34,35,36,37,38,39,40,41,42,43,44,45,46 width_16" style="stroke-width: 2"/><line x1="477" x2="72" y1="460.5" y2="460.5" class="net_31,32,33,34,35,36,37,38,39,40,41,42,43,44,45,46 width_16" style="stroke-width: 2"/><line x1="72" x2="72" y1="460.5" y2="408.5" class="net_31,32,33,34,35,36,37,38,39,40,41,42,43,44,45,46 width_16" style="stroke-width: 2"/><line x1="72" x2="82" y1="408.5" y2="408.5" class="net_31,32,33,34,35,36,37,38,39,40,41,42,43,44,45,46 width_16" style="stroke-width: 2"/><line x1="309.3333333333333" x2="413" y1="336.5" y2="336.5" class="net_8,9,10 width_3" style="stroke-width: 2"/><line x1="375" x2="426" y1="387.5" y2="387.5" class="net_47 width_1" style="stroke-width: 1"/><line x1="426" x2="426" y1="387.5" y2="344.5" class="net_47 width_1" style="stroke-width: 1"/><line x1="438.5" x2="487" y1="326.5" y2="326.5" class="net_48,49,50 width_3" style="stroke-width: 2"/><line x1="487" x2="487" y1="326.5" y2="480.5" class="net_48,49,50 width_3" style="stroke-width: 2"/><line x1="487" x2="52" y1="480.5" y2="480.5" class="net_48,49,50 width_3" style="stroke-width: 2"/><line x1="52" x2="52" y1="480.5" y2="283" class="net_48,49,50 width_3" style="stroke-width: 2"/><line x1="52" x2="82" y1="283" y2="283" class="net_48,49,50 width_3" style="stroke-width: 2"/><line x1="312" x2="416" y1="439.5" y2="439.5" class="net_58,59,60,61,62,63,64,65,66,67,68,69,70,71,72,73 width_16" style="stroke-width: 2"/><line x1="371" x2="414" y1="142" y2="142" class="net_3 width_1" style="stroke-width: 1"/><line x1="371" x2="413" y1="42" y2="42" class="net_4 width_1" style="stroke-width: 1"/><rect x="229.5" y="261" width="16" height="9" class="net_5,6,7 width_3 busLabel_3" style="fill: white; stroke: none"/><text x="228.5" y="269" class="net_5,6,7 width_3 busLabel_3">/3/</text><rect x="229.5" y="261" width="16" height="9" class="net_5,6,7 width_3 busLabel_3" style="fill: white; stroke: none"/><text x="228.5" y="269" class="net_5,6,7 width_3 busLabel_3">/3/</text><rect x="229.5" y="261" width="16" height="9" class="net_5,6,7 width_3 busLabel_3" style="fill: white; stroke: none"/><text x="228.5" y="269" class="net_5,6,7 width_3 busLabel_3">/3/</text><rect x="229.5" y="339" width="16" height="9" class="net_51,52,53 width_3 busLabel_3" style="fill: white; stroke: none"/><text x="228.5" y="347" class="net_51,52,53 width_3 busLabel_3">/3/</text><rect x="229.5" y="382.5" width="22" height="9" class="net_11,12,13,14,15,16,17,18,19,20,21,22,23,24,25,26 width_16 busLabel_16" style="fill: white; stroke: none"/><text x="228.5" y="390.5" class="net_11,12,13,14,15,16,17,18,19,20,21,22,23,24,25,26 width_16 busLabel_16">/16/</text><rect x="229.5" y="382.5" width="22" height="9" class="net_11,12,13,14,15,16,17,18,19,20,21,22,23,24,25,26 width_16 busLabel_16" style="fill: white; stroke: none"/><text x="228.5" y="390.5" class="net_11,12,13,14,15,16,17,18,19,20,21,22,23,24,25,26 width_16 busLabel_16">/16/</text><rect x="229.5" y="382.5" width="22" height="9" class="net_11,12,13,14,15,16,17,18,19,20,21,22,23,24,25,26 width_16 busLabel_16" style="fill: white; stroke: none"/><text x="228.5" y="390.5" class="net_11,12,13,14,15,16,17,18,19,20,21,22,23,24,25,26 width_16 busLabel_16">/16/</text><rect x="229.5" y="382.5" width="22" height="9" class="net_11,12,13,14,15,16,17,18,19,20,21,22,23,24,25,26 width_16 busLabel_16" style="fill: white; stroke: none"/><text x="228.5" y="390.5" class="net_11,12,13,14,15,16,17,18,19,20,21,22,23,24,25,26 width_16 busLabel_16">/16/</text><rect x="229.5" y="455.5" width="22" height="9" class="net_31,32,33,34,35,36,37,38,39,40,41,42,43,44,45,46 width_16 busLabel_16" style="fill: white; stroke: none"/><text x="228.5" y="463.5" class="net_31,32,33,34,35,36,37,38,39,40,41,42,43,44,45,46 width_16 busLabel_16">/16/</text><rect x="361.5" y="331.5" width="16" height="9" class="net_8,9,10 width_3 busLabel_3" style="fill: white; stroke: none"/><text x="360.5" y="339.5" class="net_8,9,10 width_3 busLabel_3">/3/</text><rect x="229.5" y="475.5" width="16" height="9" class="net_48,49,50 width_3 busLabel_3" style="fill: white; stroke: none"/><text x="228.5" y="483.5" class="net_48,49,50 width_3 busLabel_3">/3/</text><rect x="361.5" y="434.5" width="22" height="9" class="net_58,59,60,61,62,63,64,65,66,67,68,69,70,71,72,73 width_16 busLabel_16" style="fill: white; stroke: none"/><text x="360.5" y="442.5" class="net_58,59,60,61,62,63,64,65,66,67,68,69,70,71,72,73 width_16 busLabel_16">/16/</text></svg>