<svg xmlns="http://www.w3.org/2000/svg" xmlns:xlink="http://www.w3.org/1999/xlink" xmlns:s="https://github.com/nturley/netlistsvg" width="318" height="264"><style>svg {
  stroke:#000;
  fill:none;
}
text {
  fill:#000;
  stroke:none;
  font-size:10px;
  font-weight: bold;
  font-family: "Courier New", monospace;
}
line {
    stroke-linecap: round;
}
.nodelabel {
  text-anchor: middle;
}
.inputPortLabel {
  text-anchor: end;
}
.splitjoinBody {
  fill:#000;
}</style><g s:type="dff" transform="translate(210,42)" s:width="30" s:height="40" id="cell_\10"><s:alias val="$dff"/><s:alias val="$_DFF_"/><s:alias val="$_DFF_P_"/><s:alias val="dff-bus"/><s:alias val="$dff-bus"/><s:alias val="$_DFF_-bus"/><s:alias val="$_DFF_P_-bus"/><rect width="30" height="40" x="0" y="0" fill="#ffef8b" class="cell_\10"/><path d="M0,35 L5,30 L0,25" class="cell_\10"/><g s:x="31" s:y="10" s:pid="Q"/><g s:x="-1" s:y="30" s:pid="CLK"/><g s:x="-1" s:y="30" s:pid="C"/><g s:x="-1" s:y="10" s:pid="D"/></g><g s:type="mux" transform="translate(85,22)" s:width="20" s:height="40" id="cell_\5"><s:alias val="$pmux"/><s:alias val="$mux"/><s:alias val="$_MUX_"/><path d="M0,0 L20,10 L20,30 L0,40 Z" fill="#ffffff" class="cell_\5"/><text x="5" y="32" class="nodelabel cell_\5" s:attribute="">1</text><text x="5" y="13" class="nodelabel cell_\5" s:attribute="">0</text><g s:x="0" s:y="10" s:pid="A"/><g s:x="0" s:y="30" s:pid="B"/><g s:x="10" s:y="35" s:pid="S"/><g s:x="20" s:y="20" s:pid="Y"/></g><g s:type="mux" transform="translate(147.33333333333334,32)" s:width="20" s:height="40" id="cell_\7"><s:alias val="$pmux"/><s:alias val="$mux"/><s:alias val="$_MUX_"/><path d="M0,0 L20,10 L20,30 L0,40 Z" fill="#ffffff" class="cell_\7"/><text x="5" y="32" class="nodelabel cell_\7" s:attribute="">1</text><text x="5" y="13" class="nodelabel cell_\7" s:attribute="">0</text><g s:x="0" s:y="10" s:pid="A"/><g s:x="0" s:y="30" s:pid="B"/><g s:x="10" s:y="35" s:pid="S"/><g s:x="20" s:y="20" s:pid="Y"/></g><g s:type="inputExt" transform="translate(144,232)" s:width="30" s:height="20" id="cell_clk"><text x="15" y="-4" class="nodelabel cell_clk" s:attribute="ref">clk</text><s:alias val="$_inputExt_"/><path d="M0,0 L0,20 L15,20 L30,10 L15,0 Z" fill="#8bcaff" class="cell_clk"/><g s:x="30" s:y="10" s:pid="Y"/></g><g s:type="inputExt" transform="translate(12,107)" s:width="30" s:height="20" id="cell_clear"><text x="15" y="-4" class="nodelabel cell_clear" s:attribute="ref">clear</text><s:alias val="$_inputExt_"/><path d="M0,0 L0,20 L15,20 L30,10 L15,0 Z" fill="#8bcaff" class="cell_clear"/><g s:x="30" s:y="10" s:pid="Y"/></g><g s:type="inputExt" transform="translate(78,202)" s:width="30" s:height="20" id="cell_set"><text x="15" y="-4" class="nodelabel cell_set" s:attribute="ref">set</text><s:alias val="$_inputExt_"/><path d="M0,0 L0,20 L15,20 L30,10 L15,0 Z" fill="#8bcaff" class="cell_set"/><g s:x="30" s:y="10" s:pid="Y"/></g><g s:type="outputExt" transform="translate(276,42)" s:width="30" s:height="20" id="cell_val"><text x="15" y="-4" class="nodelabel cell_val" s:attribute="ref">val</text><s:alias val="$_outputExt_"/><path d="M30,0 L30,20 L15,20 L0,10 L15,0 Z" fill="#169300" class="cell_val"/><g s:x="0" s:y="10" s:pid="A"/></g><g s:type="constant" transform="translate(12,42)" s:width="30" s:height="20" id="cell_0"><text x="15" y="-4" class="nodelabel cell_0" s:attribute="ref">0</text><s:alias val="$_constant_"/><rect width="30" height="20" fill="#745bff" class="cell_0"/><g s:x="31" s:y="10" s:pid="Y"/></g><g s:type="constant" transform="translate(78,137)" s:width="30" s:height="20" id="cell_1"><text x="15" y="-4" class="nodelabel cell_1" s:attribute="ref">1</text><s:alias val="$_constant_"/><rect width="30" height="20" fill="#745bff" class="cell_1"/><g s:x="31" s:y="10" s:pid="Y"/></g><line x1="174" x2="184" y1="242" y2="242" class="net_2 width_1" style="stroke-width: 1"/><line x1="184" x2="184" y1="242" y2="72" class="net_2 width_1" style="stroke-width: 1"/><line x1="184" x2="209" y1="72" y2="72" class="net_2 width_1" style="stroke-width: 1"/><line x1="167.33333333333334" x2="209" y1="52" y2="52" class="net_6 width_1" style="stroke-width: 1"/><line x1="241" x2="251" y1="52" y2="52" class="net_5 width_1" style="stroke-width: 1"/><line x1="251" x2="251" y1="52" y2="12" class="net_5 width_1" style="stroke-width: 1"/><line x1="251" x2="53" y1="12" y2="12" class="net_5 width_1" style="stroke-width: 1"/><line x1="53" x2="53" y1="12" y2="32" class="net_5 width_1" style="stroke-width: 1"/><circle cx="251" cy="52" r="2" style="fill:#000" class="net_5 width_1"/><line x1="53" x2="85" y1="32" y2="32" class="net_5 width_1" style="stroke-width: 1"/><line x1="241" x2="276" y1="52" y2="52" class="net_5 width_1" style="stroke-width: 1"/><line x1="43" x2="85" y1="52" y2="52" class="net_8 width_1" style="stroke-width: 1"/><line x1="42" x2="95" y1="117" y2="117" class="net_3 width_1" style="stroke-width: 1"/><line x1="95" x2="95" y1="117" y2="57" class="net_3 width_1" style="stroke-width: 1"/><line x1="105" x2="147.33333333333334" y1="42" y2="42" class="net_7 width_1" style="stroke-width: 1"/><line x1="109" x2="119" y1="147" y2="147" class="net_9 width_1" style="stroke-width: 1"/><line x1="119" x2="119" y1="147" y2="62" class="net_9 width_1" style="stroke-width: 1"/><line x1="119" x2="147.33333333333334" y1="62" y2="62" class="net_9 width_1" style="stroke-width: 1"/><line x1="108" x2="157.33333333333334" y1="212" y2="212" class="net_4 width_1" style="stroke-width: 1"/><line x1="157.33333333333334" x2="157.33333333333334" y1="212" y2="67" class="net_4 width_1" style="stroke-width: 1"/></svg>